<?xml version="1.0" standalone="no"?>
<!DOCTYPE svg PUBLIC "-//W3C//DTD SVG 20010904//EN"
 "http://www.w3.org/TR/2001/REC-SVG-20010904/DTD/svg10.dtd">
<svg version="1.0" xmlns="http://www.w3.org/2000/svg"
 width="184.000000pt" height="128.000000pt" viewBox="0 0 184.000000 128.000000"
 preserveAspectRatio="xMidYMid meet">

<g transform="translate(0.000000,128.000000) scale(0.100000,-0.100000)"
fill="#000000" stroke="none">
<path d="M14 1246 c-3 -8 -4 -187 -2 -398 4 -333 7 -390 22 -438 40 -123 108
-219 202 -286 218 -156 506 -133 693 55 117 117 161 241 161 456 0 105 3 127
23 165 46 92 147 137 245 109 58 -16 126 -81 141 -135 7 -25 11 -177 11 -407
l0 -367 163 2 162 3 0 400 c-1 391 -1 401 -24 465 -30 85 -64 144 -120 204
-123 132 -303 193 -480 162 -116 -21 -202 -65 -287 -150 -121 -121 -164 -241
-164 -462 0 -146 -17 -189 -94 -242 -41 -27 -57 -32 -107 -32 -33 0 -74 6 -92
13 -44 19 -103 87 -116 134 -7 23 -11 176 -11 401 l0 362 -160 0 c-130 0 -162
-3 -166 -14z"/>
</g>
</svg>
